<?xml version="1.0" encoding="UTF-8" standalone="no"?>
<!-- Created with Inkscape (http://www.inkscape.org/) -->

<svg
   xmlns:dc="http://purl.org/dc/elements/1.1/"
   xmlns:cc="http://creativecommons.org/ns#"
   xmlns:rdf="http://www.w3.org/1999/02/22-rdf-syntax-ns#"
   xmlns:svg="http://www.w3.org/2000/svg"
   xmlns="http://www.w3.org/2000/svg"
   xmlns:sodipodi="http://sodipodi.sourceforge.net/DTD/sodipodi-0.dtd"
   xmlns:inkscape="http://www.inkscape.org/namespaces/inkscape"
   version="1.1"
   id="svg2"
   xml:space="preserve"
   width="40"
   height="40"
   viewBox="0 0 40 40"
   sodipodi:docname="Logo.svg"
   inkscape:version="0.92.1 r15371"><metadata
     id="metadata8"><rdf:RDF><cc:Work
         rdf:about=""><dc:format>image/svg+xml</dc:format><dc:type
           rdf:resource="http://purl.org/dc/dcmitype/StillImage" /><dc:title></dc:title></cc:Work></rdf:RDF></metadata><defs
     id="defs6"><clipPath
       clipPathUnits="userSpaceOnUse"
       id="clipPath20"><path
         d="M 0,226.771 H 524.409 V 0 H 0 Z"
         id="path18"
         inkscape:connector-curvature="0" /></clipPath></defs><sodipodi:namedview
     pagecolor="#ffffff"
     bordercolor="#666666"
     borderopacity="1"
     objecttolerance="10"
     gridtolerance="10"
     guidetolerance="10"
     inkscape:pageopacity="0"
     inkscape:pageshadow="2"
     inkscape:window-width="1920"
     inkscape:window-height="1027"
     id="namedview4"
     showgrid="false"
     inkscape:zoom="16"
     inkscape:cx="29.313042"
     inkscape:cy="14.28439"
     inkscape:window-x="-8"
     inkscape:window-y="-8"
     inkscape:window-maximized="1"
     inkscape:current-layer="g10" /><g
     id="g10"
     inkscape:groupmode="layer"
     inkscape:label="Web Apps - 4 x Company Logo (High Res)"
     transform="matrix(1.3333333,0,0,-1.3333333,0,40.000002)"
     style="display:inline"><g
       id="g14"
       style="display:inline"
       transform="matrix(0.50667882,0,0,0.50667882,-188.45485,-41.732245)"><g
         id="g16"
         clip-path="url(#clipPath20)"
         style="display:inline"><g
           id="g74"
           transform="matrix(0.99860196,0,0,0.99860196,401.54645,141.57241)"
           style="display:inline"><path
             d="m 0,0 c -16.373,0 -29.646,-13.272 -29.646,-29.646 0.001,-16.373 13.273,-29.645 29.646,-29.645 16.373,0 29.646,13.272 29.646,29.645 C 29.646,-13.272 16.373,0 0,0"
             style="fill:#ffffff;fill-opacity:1;fill-rule:evenodd;stroke:none"
             id="path76"
             inkscape:connector-curvature="0" /></g><g
           id="g78"
           transform="translate(393.6484,124.5801)"
           style="display:inline"><path
             d="M 0,0 C 0.094,0.045 0.145,0.088 0.102,0.131 0.068,0.07 0.037,0.025 0,0 m 2.717,-1.781 c 0.062,-0.067 0.127,-0.067 0.189,0.062 l -0.127,0.065 c -0.125,0 -0.125,-0.065 -0.062,-0.127 m -4.723,-10.211 c -0.189,-0.063 -0.318,-0.063 -0.383,0 l -0.064,0.191 c -0.063,0 -0.063,-0.062 -0.127,-0.127 -0.063,-0.127 -0.063,-0.191 0,-0.256 0.127,-0.127 0.127,-0.254 -0.063,-0.447 -0.193,-0.189 -0.193,-0.381 -0.064,-0.445 0.064,0.064 0.254,0 0.572,-0.129 l 0.129,0.32 c 0.065,0.127 0.129,0.192 0.256,0.254 -0.127,0.066 -0.127,0.258 0.062,0.639 -0.062,0.064 -0.126,0.064 -0.318,0 m 10.783,-7.209 c -0.127,0.064 -0.254,0.191 -0.32,0.318 0,-0.191 0.127,-0.383 0.32,-0.574 0.194,-0.191 0.383,-0.191 0.51,0.064 0.065,0.063 0,0.127 -0.127,0.063 -0.189,-0.063 -0.318,0 -0.383,0.129 m -17.611,8.678 c -0.129,0.191 -0.129,0.253 0,0.191 l 0.131,-0.064 c 0,-0.192 -0.067,-0.254 -0.131,-0.127 m 8.297,-4.467 c 0,-0.192 -0.065,-0.319 -0.256,-0.448 -0.191,-0.19 -0.318,-0.19 -0.445,-0.126 0.127,0.126 0,0.191 -0.385,0.255 H -1.75 l -0.127,0.063 v -0.063 h -0.129 v -0.064 l -0.062,-0.065 h -0.385 v -0.064 H -2.58 l -0.191,-0.062 h -0.065 v 0.062 h -0.062 v 0.066 l -0.065,0.063 v 0.191 l 0.049,0.047 0.016,0.08 -0.049,0.194 h -0.016 v 0.062 h -0.318 v 0.031 l -0.065,0.033 c -0.021,0.022 -0.031,0.042 -0.049,0.063 h -0.017 v 0.02 c -0.01,0.013 -0.024,0.029 -0.033,0.043 h -0.028 v 0.035 c -0.039,0.066 -0.066,0.123 -0.066,0.158 l -0.035,0.127 H -3.6 v 0.092 l -0.046,0.164 h -0.02 v 0.063 h -0.061 v 0.095 l -0.023,0.033 h -0.043 v 0.065 h -0.062 v 0.062 H -3.92 v 0.065 h -0.127 v 0.031 l -0.129,0.031 -0.062,-0.103 v -0.024 h -0.014 l -0.113,-0.191 -0.065,-0.033 v -0.031 h -0.066 v -0.063 h -0.127 v -0.065 l -0.061,-0.062 0.02,-0.065 h 0.041 v -0.127 h 0.066 v -0.257 l -0.066,-0.02 v -0.043 H -4.75 v -0.127 h -0.127 v -0.062 h 0.066 v -0.129 h -0.066 v -0.127 h -0.064 v -0.065 h -0.192 v 0.065 h -0.062 v 0.019 l -0.127,0.043 v 0.129 l -0.065,-0.033 v -0.031 h -0.062 v -0.065 h -0.067 v -0.062 h -0.382 v 0.062 l -0.063,0.065 h -0.064 v 0.097 l -0.022,0.032 H -6.09 v 0.062 h -0.127 v 0.064 h -0.129 v 0.016 l -0.381,0.047 c 0,0.023 -0.009,0.041 -0.011,0.063 h -0.053 v 0.259 c -0.012,0.024 -0.02,0.041 -0.031,0.061 h -0.032 v 0.064 h -0.13 v 0.065 h -0.063 v 0.062 h -0.064 v 0.065 l -0.084,0.127 h -0.043 v 0.064 h -0.127 v 0.057 c -0.004,0.004 -0.008,0.015 -0.014,0.021 l -0.051,0.049 v 0.031 c -0.008,0.01 -0.015,0.022 -0.021,0.034 h -0.041 v 0.062 h -0.065 v 0.045 l -0.033,0.02 h -0.029 v 0.021 l -0.065,0.043 v 0.128 l 0.065,0.032 v 0.031 h 0.062 l 0.065,0.032 v 0.031 h 0.062 l 0.065,0.129 v 0.064 h 0.062 l 0.002,0.001 v 0.062 h 0.065 l 0.062,0.064 h 0.063 l 0.064,-0.064 h 0.32 v 0.064 h 0.063 v 0.065 H -6.6 v 0.062 h 0.067 v 0.066 l 0.06,0.061 h 0.067 v 0.066 h 0.062 l 0.065,0.063 -0.067,0.064 v -0.064 h -0.06 v 0.064 h -0.067 v 0.043 l -0.06,0.022 h -0.258 v 0.064 l -0.129,0.125 v 0.129 h 0.045 l 0.021,0.063 0.063,0.094 v 0.097 h 0.127 v -0.047 l 0.023,-0.015 H -6.6 l 0.127,-0.129 0.127,0.064 h 0.002 l 0.127,0.065 0.065,0.019 v 0.043 h 0.318 l 0.064,0.065 v 0.064 h 0.063 v 0.254 h 0.051 l 0.013,0.064 0.063,0.063 v 0.064 h 0.064 v 0.066 H -5.5 l 0.051,0.19 v 0.254 l 0.062,0.063 v 0.004 l 0.065,0.062 -0.065,0.127 v 0.065 h 0.041 l 0.024,0.036 v 0.028 h 0.017 l 0.043,0.062 v 0.065 h 0.067 v 0.064 h 0.254 l 0.064,0.063 h 0.127 c 0.066,0 0.254,0 0.447,-0.063 0.127,0.063 0.194,0.127 0.256,0.319 0.065,0.191 0.065,0.32 0.127,0.383 0,0.064 0.065,0.064 0.254,0 0.193,-0.063 0.385,0 0.574,0.064 0.129,0.063 0.321,0.127 0.512,0.256 l 0.256,0.062 c 0.318,0 0.51,-0.062 0.701,-0.191 0.254,0.129 0.447,0.064 0.512,-0.127 0.062,-0.191 0.127,-0.447 0.062,-0.703 0.194,0.064 0.256,0.064 0.194,-0.127 0,-0.191 0.062,-0.318 0.126,-0.318 0.192,-0.194 0.383,-0.51 0.444,-0.895 0.064,-0.063 0.193,-0.063 0.26,-0.063 l -0.129,0.127 c -0.129,0.256 -0.067,0.256 0.129,0.065 0.189,-0.192 0.189,-0.32 0.06,-0.447 -0.189,-0.127 -0.381,-0.256 -0.447,-0.319 -0.19,-0.129 -0.254,-0.318 -0.19,-0.511 0.19,0.32 0.51,0.447 0.831,0.382 0.189,0.065 0.316,0 0.382,-0.189 0.061,-0.065 0.061,-0.258 0.127,-0.447 0,-0.065 0.063,-0.192 0.127,-0.385 0,-0.126 -0.064,-0.254 -0.127,-0.318 0.065,-0.319 0.063,-0.448 -0.127,-0.448 -0.064,0.065 -0.129,0.194 -0.129,0.383 v 0.447 c 0,0.129 -0.064,0.256 -0.191,0.321 -0.189,0.128 -0.256,0.127 -0.256,-0.065 l 0.194,-0.383 c 0.126,-0.063 0.062,-0.32 -0.194,-0.638 0.129,0.129 0.256,0.191 0.383,0.129 0.129,-0.065 0.193,-0.129 0.127,-0.321 -0.19,-0.382 -0.443,-0.511 -0.637,-0.382 -0.32,0.064 -0.447,-0.129 -0.445,-0.51 m 23.033,-10.975 c -0.062,-0.191 -0.127,-0.318 -0.254,-0.447 -0.191,-0.127 -0.256,-0.065 -0.32,0.129 -0.063,0.062 -0.129,0 -0.063,-0.067 v -0.127 c 0.065,-0.062 0,-0.189 -0.193,-0.38 0.064,-0.065 0.127,-0.065 0.256,0 0.064,0 0.064,-0.065 0.064,-0.129 l -0.064,-0.063 c -0.129,-0.193 -0.256,-0.256 -0.447,-0.32 -0.19,-0.065 -0.383,0 -0.448,0.191 -0.127,0 -0.254,-0.064 -0.381,-0.191 -0.193,-0.192 -0.32,-0.255 -0.447,-0.192 0,-0.19 0.127,-0.19 0.321,-0.063 0.189,0.128 0.316,0.128 0.38,0 0.065,-0.064 0.065,-0.192 -0.064,-0.384 -0.063,-0.062 -0.127,-0.127 -0.254,-0.127 l 0.064,-0.064 h 0.192 c 0.062,0 0.062,-0.063 -0.065,-0.127 -0.191,-0.255 -0.447,-0.319 -0.83,-0.255 -0.062,-0.064 -0.189,-0.064 -0.38,-0.127 -0.194,-0.063 -0.258,-0.127 -0.321,-0.256 0.127,0.064 0.194,0.129 0.254,0.129 0.576,-0.065 0.766,-0.129 0.576,-0.256 -0.129,0.063 -0.256,0 -0.318,-0.13 -0.131,-0.127 -0.065,-0.127 0.127,-0.062 0.191,-0.065 0.254,-0.065 0.318,0.127 0,0.192 0.127,0.192 0.447,0 0.192,-0.065 0.254,-0.192 0.19,-0.255 -0.127,-0.064 -0.254,-0.064 -0.383,-0.064 0.385,-0.129 0.959,-0.063 1.66,0.192 h 0.383 c 0.067,-0.128 0,-0.255 -0.191,-0.321 -0.063,-0.061 -0.063,-0.188 0,-0.317 0.191,-0.447 0,-0.767 -0.575,-0.893 -0.253,0 -0.445,-0.064 -0.572,-0.256 -0.193,-0.19 -0.258,-0.383 -0.193,-0.637 H 20.9 c -0.318,0.064 -0.511,0.064 -0.701,0 -0.062,-0.064 -0.127,-0.128 -0.191,-0.193 -0.319,-0.062 -0.572,-0.191 -0.703,-0.254 -0.254,-0.064 -0.446,-0.191 -0.573,-0.383 -0.447,0.127 -0.832,0.256 -1.021,0.319 -0.383,0.127 -0.703,0.127 -1.022,0 -0.701,-0.192 -1.084,-0.257 -1.148,-0.257 0.064,-0.188 -0.062,-0.188 -0.256,-0.062 -0.189,0.062 -0.254,0.192 -0.189,0.256 0.189,0.127 0.129,0.19 -0.065,0.127 -0.066,0.063 -0.066,0.063 -0.066,-0.064 0,-0.192 -0.061,-0.192 -0.188,-0.127 0.127,0.318 0.127,0.445 -0.066,0.254 -0.063,-0.19 -0.127,-0.319 -0.191,-0.254 -0.127,0.064 -0.127,0.191 0.064,0.318 -0.318,0.065 -0.385,0 -0.191,-0.191 -0.067,-0.127 -0.127,-0.127 -0.254,0 -0.194,0.191 -0.319,0.256 -0.385,0.256 -0.061,0.062 -0.127,0.191 -0.316,0.255 h -0.129 c 0.015,-0.027 0.072,-0.07 0.191,-0.128 0.193,-0.065 0.254,-0.192 0.254,-0.383 0,-0.127 -0.127,-0.192 -0.316,-0.192 -0.196,-0.127 -0.256,-0.192 -0.323,-0.192 -0.127,-0.061 -0.252,0 -0.381,0.065 l -0.318,-0.126 c -0.066,0.061 -0.193,0 -0.385,-0.066 -0.127,-0.063 -0.193,-0.063 -0.254,0.066 -0.318,-0.066 -0.384,-0.129 -0.318,-0.129 0.062,0.063 0.191,0 0.379,-0.127 0.066,-0.127 0,-0.256 -0.061,-0.383 -0.447,0.127 -0.83,0.191 -1.15,0.191 -0.191,0.065 -0.254,0 -0.318,-0.127 -0.063,-0.064 -0.063,-0.192 0,-0.321 l -0.127,-0.19 c 0.064,0.19 -0.063,0.382 -0.256,0.574 -0.317,0.191 -0.512,0.383 -0.639,0.446 -0.191,0.127 -0.383,0.127 -0.703,0 -0.318,-0.063 -0.572,-0.128 -0.699,-0.128 -0.065,0 -0.192,-0.062 -0.385,-0.254 -0.187,-0.127 -0.254,-0.127 -0.318,0.065 -0.063,0.127 -0.127,0.127 -0.063,0 0.063,-0.192 0,-0.321 -0.064,-0.384 -0.127,-0.065 -0.192,-0.191 -0.127,-0.384 0,-0.127 -0.065,-0.191 -0.127,-0.191 0.191,-0.192 0.254,-0.319 0.062,-0.51 -0.062,-0.064 -0.191,-0.191 -0.383,-0.256 0.065,-0.381 -0.064,-0.51 -0.447,-0.318 -0.062,0 -0.189,0.064 -0.318,0.191 -0.063,0.192 -0.192,0.255 -0.319,0.192 -0.126,-0.065 -0.253,-0.065 -0.382,0.127 -0.129,0.128 -0.256,0.192 -0.321,0.128 0.192,-0.064 0.192,-0.064 0.129,-0.128 -0.129,-0.063 -0.256,0 -0.318,0.128 -0.131,0.064 -0.318,0 -0.576,-0.064 -0.19,-0.064 -0.383,-0.128 -0.573,-0.064 H 3.162 c -0.062,0.064 -0.127,0 -0.191,-0.127 -0.065,-0.256 -0.192,-0.383 -0.383,-0.383 l -0.383,-0.384 -0.062,0.321 c 0,-0.193 -0.065,-0.383 -0.192,-0.448 -0.064,-0.064 -0.066,-0.129 0,-0.191 0.127,-0.127 0.127,-0.256 0,-0.318 -0.064,0 -0.191,-0.065 -0.385,-0.256 -0.316,0.447 -0.574,0.701 -0.765,0.765 -0.129,0.065 -0.256,0 -0.319,-0.191 -0.064,-0.191 -0.191,-0.256 -0.38,-0.191 -0.194,0.191 -0.194,0.382 0,0.574 0.445,0.192 0.763,0.256 0.828,0.192 0.32,0.191 0.574,0.445 0.636,0.637 0.065,0.064 0.194,0.128 0.258,0.319 0.063,0.129 0.127,0.192 0.254,0.129 0.065,0.445 0.192,0.701 0.318,0.636 0.065,0.065 0.192,0.128 0.258,0.193 0.19,-0.065 0.252,0.064 0.317,0.256 0.064,0.189 0.191,0.317 0.258,0.317 0.38,0.319 0.509,0.638 0.38,1.022 v 0.064 c 0.065,0.064 0.129,0.254 0.129,0.446 0.063,0 0.19,0 0.448,-0.063 0.187,-0.066 0.318,-0.066 0.38,0.127 0.127,0.063 0.127,0.192 0.065,0.383 -0.065,0.191 0,0.254 0.062,0.318 0.065,0.127 0.256,0.192 0.577,0.192 0.187,0.065 0.382,0.065 0.701,0.065 0.189,0.062 0.509,0.062 0.957,0 0.32,-0.257 0.703,-0.257 1.148,-0.065 0.19,-0.065 0.32,-0.065 0.381,0 0.066,0.065 0.066,0.192 0,0.383 0.066,0.127 0.127,0.319 0.193,0.509 0.065,0 0.127,0.127 0.319,0.32 0.191,0.193 0.318,0.257 0.445,0.257 0.387,0.701 0.705,1.083 0.895,1.21 0.127,0.065 0.191,0.065 0.127,0.127 0,0.065 -0.063,0.065 -0.127,-0.062 -0.127,-0.065 -0.321,-0.192 -0.51,-0.383 -0.19,-0.256 -0.385,-0.383 -0.447,-0.447 -0.448,-0.192 -0.702,-0.255 -0.829,-0.127 l -0.384,-0.382 c -0.127,-0.129 -0.192,-0.256 -0.192,-0.386 -0.699,-0.317 -1.211,-0.254 -1.531,0.321 -0.129,-0.064 -0.189,0.065 -0.256,0.255 -0.062,0.256 -0.189,0.383 -0.254,0.446 -0.062,0.064 -0.191,0.064 -0.383,0 -0.193,-0.063 -0.193,-0.127 -0.066,-0.254 -0.379,0 -0.572,0 -0.635,-0.065 -0.256,-0.127 -0.383,0 -0.383,0.319 0.065,0.064 0.192,0.129 0.319,0.064 0.127,0 0.256,0.065 0.32,0.127 0.065,0.065 0,0.129 -0.064,0.065 -0.129,0 -0.192,0.064 -0.256,0.127 -0.065,-0.063 -0.192,-0.063 -0.385,0 -0.127,0.065 -0.187,0.128 -0.127,0.192 0.193,-0.064 0.127,0.063 -0.06,0.255 -0.067,-0.065 -0.127,-0.065 -0.194,-0.065 -0.064,0.065 -0.064,0 0,-0.127 -0.254,0 -0.447,0 -0.512,-0.063 -0.191,-0.064 -0.318,-0.127 -0.318,-0.319 -0.062,-0.065 -0.127,-0.065 -0.318,-0.127 -0.19,0 -0.256,-0.065 -0.321,-0.129 -0.127,-0.063 -0.253,-0.063 -0.318,0 -0.127,0.064 -0.189,0.191 -0.189,0.256 l -0.129,0.064 0.191,0.063 c 0.576,0.128 0.637,0.192 0.318,0.128 -0.062,-0.063 -0.253,-0.063 -0.445,0 -0.191,0.064 -0.254,0 -0.254,-0.128 l -0.193,0.192 c -0.065,0.063 0,0.063 0.127,0.063 0.256,0.192 0.32,0.383 0.193,0.575 -0.064,0.064 -0.193,0.129 -0.385,0.064 -0.189,0 -0.189,0.065 -0.126,0.192 0.384,0.127 0.572,0.253 0.638,0.447 -0.064,0.127 0,0.189 0.192,0.189 0.127,-0.062 0.191,-0.062 0.253,-0.127 0.065,0.065 0.127,0.127 0.192,0.127 0.129,-0.062 0.191,0 0.127,0.129 0.191,0 0.32,0.127 0.447,0.319 0.067,0.064 0.193,0.128 0.383,0.128 0.193,0 0.32,0.063 0.383,0.127 0.129,0.063 0.318,0.192 0.576,0.381 0.189,0.194 0.381,0.321 0.445,0.512 0.129,0.191 0.256,0.51 0.321,0.957 0.187,0.064 0.253,0.064 0.253,0.129 0,0.062 -0.066,0.062 -0.253,0 -0.192,0.062 -0.256,0.254 -0.192,0.445 0.065,0.194 0.127,0.383 0.318,0.447 -0.191,-0.064 -0.318,0 -0.318,0.192 -0.064,0.064 -0.129,0.189 -0.129,0.383 0.065,0.191 0,0.318 -0.191,0.382 -0.192,0.065 -0.445,0 -0.639,-0.126 -0.191,-0.065 -0.318,-0.256 -0.318,-0.45 -0.063,-0.062 -0.127,0 -0.192,0.065 -0.064,0.064 -0.191,0.064 -0.254,0 -0.193,-0.127 -0.32,-0.127 -0.384,-0.065 0.191,0.321 0.447,0.576 0.894,0.895 0.321,0.191 0.448,0.447 0.448,0.765 0.06,-0.062 0.253,0.127 0.509,0.577 0.192,0 0.574,0.127 1.084,0.382 -0.191,0.19 -0.062,0.19 0.381,0 0.129,-0.064 0.385,0 0.832,0.19 0.32,0.129 0.574,0.064 0.766,-0.19 0.318,-0.32 0.445,-0.382 0.381,-0.064 -0.19,0.191 -0.254,0.318 -0.254,0.51 0,0.191 0.127,0.318 0.445,0.256 -0.061,0.062 -0.061,0.062 -0.061,0.127 -0.13,0.318 -0.193,0.509 -0.193,0.574 0.063,0.064 0.193,0.256 0.447,0.574 0.065,0.129 0.192,0.256 0.319,0.383 -0.319,-0.192 -0.512,-0.127 -0.639,0.191 -0.064,0.256 -0.064,0.51 0.066,0.83 0.446,0 0.637,0.063 0.573,0.192 0.064,0.062 0,0.127 -0.065,0.191 -0.062,0 -0.127,0.063 -0.127,0.192 0.319,0.318 0.383,0.574 0.192,0.765 0.127,0.127 0,0.063 -0.319,-0.191 l -0.193,0.191 c -0.061,0.064 -0.061,0 -0.127,-0.191 -0.191,-0.319 -0.318,-0.448 -0.318,-0.383 -0.192,0.127 -0.319,0.256 -0.254,0.447 0.062,0.065 0.127,0.19 0.127,0.383 -0.065,0.254 -0.065,0.254 -0.127,-0.066 -0.065,-0.19 -0.127,-0.19 -0.258,-0.063 -0.127,0.063 -0.187,0.192 -0.254,0.32 0.067,0.192 -0.064,0.446 -0.254,0.702 -0.256,0.319 -0.383,0.574 -0.449,0.638 l 0.193,0.701 c 0.065,0.319 0.192,0.51 0.383,0.639 -0.064,0.064 0,0.191 0.127,0.383 0.067,0.191 0.193,0.318 0.254,0.256 0.066,-0.065 0.131,-0.065 0.193,0 0.065,0.062 0,0.127 -0.062,0.189 0.062,0.127 0.189,0.127 0.381,0.065 0.254,-0.065 0.384,0 0.384,0.129 0.254,0.127 0.254,0.189 -0.066,0.189 -0.191,-0.062 -0.445,-0.127 -0.764,-0.127 -0.318,0.065 -0.511,0.127 -0.638,0.127 -0.065,-0.062 -0.127,-0.062 -0.192,0 -0.062,0 -0.064,-0.062 0,-0.189 0.065,-0.321 -0.127,-0.448 -0.449,-0.383 -0.254,-0.194 -0.381,-0.256 -0.381,-0.065 l -0.062,-0.256 c 0,-0.064 -0.065,-0.127 -0.256,-0.191 -0.065,-0.127 -0.192,-0.127 -0.318,-0.064 -0.065,0.064 -0.127,0.064 -0.127,0.128 0,-0.064 0,-0.064 -0.065,-0.128 -0.064,-0.063 -0.129,0 -0.256,0.128 -0.064,0 -0.064,0.063 -0.129,0.254 0,0.066 -0.062,0.065 -0.127,-0.062 -0.062,0 -0.193,0.062 -0.32,0.191 l -0.127,0.192 c -0.062,-0.127 -0.127,-0.256 -0.062,-0.321 0.062,-0.062 0.129,-0.191 0.256,-0.318 -0.067,-0.063 -0.067,-0.127 -0.067,-0.256 0.067,-0.191 0,-0.254 -0.06,-0.318 -0.129,0 -0.385,0.191 -0.768,0.574 -0.318,0.191 -0.574,0.318 -0.639,0.383 -0.445,-0.127 -0.509,-0.383 -0.318,-0.701 0.193,-0.321 0.254,-0.448 0.193,-0.51 -0.193,0.062 -0.258,0.127 -0.32,0.318 0,0.192 -0.064,0.319 -0.129,0.383 -0.508,0.639 -0.639,1.084 -0.445,1.34 0.191,0.062 0.256,-0.064 0.256,-0.256 0.062,-0.191 0.127,-0.318 0.254,-0.256 -0.254,0.448 -0.254,0.766 -0.065,1.086 0.449,0.446 0.574,0.83 0.51,1.147 0.064,0.066 0.129,0.193 0.256,0.449 0.129,0.127 0.258,0.189 0.384,0.254 0.125,0.129 0.125,0.318 -0.066,0.574 0.066,0.127 -0.06,0.256 -0.254,0.383 -0.191,0.064 -0.32,0.191 -0.32,0.256 -0.192,0.062 -0.192,0.191 -0.127,0.382 0.066,0.192 0.066,0.319 -0.065,0.383 -0.062,0.19 -0.062,0.446 0.065,0.639 0.129,0.254 0.318,0.318 0.512,0.127 0.574,-0.127 0.765,-0.127 0.574,-0.065 -0.194,0 -0.512,0.256 -0.959,0.704 0.064,-0.065 0.129,-0.194 0.191,-0.321 0.065,-0.062 0,-0.127 -0.191,-0.062 -0.061,0.062 -0.061,0.127 -0.061,0.189 0,-0.127 -0.066,-0.189 -0.193,-0.189 0.062,-0.065 0.062,-0.194 0,-0.383 C 2.396,-5.484 2.27,-5.611 2.205,-5.674 2.143,-5.61 2.078,-5.484 2.016,-5.291 l -0.065,0.127 c 0.127,-0.32 0,-0.256 -0.32,0.062 -0.065,-0.382 -0.127,-0.638 -0.065,-0.701 -0.38,0.063 -0.507,0.319 -0.447,0.701 0,0.321 0.194,0.639 0.578,1.022 0.127,0.064 0.254,0.129 0.381,0.318 0.065,0.129 0.192,0.194 0.256,0.258 0,0.064 0,0.063 0.062,0.063 0.065,0.064 0,0.064 -0.191,-0.063 -0.062,0 -0.189,-0.064 -0.254,-0.129 0,-0.191 -0.127,-0.318 -0.32,-0.447 C 1.439,-4.271 1.313,-4.398 1.25,-4.525 1.186,-4.652 1.119,-4.719 1.059,-4.781 0.932,-4.846 0.865,-4.781 0.801,-4.719 0.803,-4.908 0.93,-5.355 1.25,-6.057 0.803,-6.377 0.611,-6.695 0.738,-7.078 c 0.065,-0.065 0,-0.318 -0.127,-0.639 L 0.482,-7.973 c -0.064,-0.062 -0.064,-0.127 0,-0.189 0.065,-0.065 0.063,-0.065 0.063,-0.065 0.066,-0.191 0,-0.384 -0.254,-0.511 -0.256,-0.063 -0.445,-0.063 -0.637,0 -0.066,0.127 0,0.256 0.061,0.447 0.064,0.064 0.064,0.064 0.131,0.129 0.062,0.127 0.129,0.254 0.129,0.318 -0.067,0.319 0,0.766 0.189,1.211 0.383,0.447 0.574,0.703 0.637,0.893 -0.319,-0.317 -0.572,-0.446 -0.637,-0.317 -0.062,0.063 -0.062,0.254 0,0.446 0.127,0.191 0.191,0.32 0.191,0.382 C 0.291,-5.355 0.164,-5.42 0.102,-5.42 c -0.067,0 -0.067,0.065 0,0.256 0.127,0.062 0.189,0.191 0.253,0.383 0.063,0.191 0.063,0.129 -0.126,-0.065 L 0.035,-5.102 v 0.129 c 0.067,0 0.129,0.127 0.194,0.383 0.062,0.192 0.189,0.254 0.316,0.192 -0.063,0.062 -0.127,0.127 -0.063,0.318 l 0.129,0.256 C 0.355,-4.08 0.291,-4.08 0.355,-3.889 c 0.063,0.065 0.127,0.192 0.063,0.385 -0.063,0.064 -0.063,0.063 -0.063,0.127 0,0.191 0.063,0.383 0.19,0.574 0.066,0.063 0.193,0.254 0.32,0.51 h 0.321 c -0.127,0 -0.194,0.064 -0.256,0.191 0.062,0.066 0.062,0.065 0.129,0.127 0.318,0.256 0.38,0.321 0.127,0.194 -0.127,-0.129 -0.194,-0.129 -0.194,0 0,0.127 0.067,0.254 0.127,0.381 0.32,0.32 0.447,0.448 0.512,0.448 h 0.066 c -0.193,0.061 -0.131,0.319 0.127,0.638 0.063,0.126 -0.064,0 -0.385,-0.383 C 1.377,-0.891 1.25,-1.016 0.93,-1.209 0.611,-1.781 0.291,-2.037 0.035,-2.037 c -0.189,0.127 -0.381,0.189 -0.637,0.256 -0.191,0.127 -0.32,0.254 -0.32,0.445 0,0.192 0.129,0.191 0.383,0.127 0.256,0.257 0.514,0.318 0.768,0.193 0.318,0.064 0.253,0.125 -0.254,0.125 -0.067,0 -0.196,0 -0.387,-0.061 -0.19,-0.064 -0.317,-0.128 -0.381,-0.064 -0.576,-0.064 -0.895,0 -0.83,0.319 0.127,0.127 0.385,0.191 0.83,0.254 0.064,-0.063 0.127,-0.127 0.191,-0.127 0.065,0.064 0.063,0.064 0.129,0.127 0.19,0.064 0.188,0.129 0,0.193 0,0.062 0.127,0.127 0.319,0.189 0.056,0.02 0.103,0.038 0.144,0.057 -0.039,-0.021 -0.084,-0.023 -0.144,0.008 -0.129,0.064 -0.131,0.127 0.062,0.191 -0.445,0 -0.574,0 -0.447,0.065 0.066,0 0.127,0.127 0.127,0.447 0,0.383 0.191,0.383 0.576,0 L 0.355,0.77 C 0.229,0.707 0.164,0.77 0.102,0.961 0.035,1.09 -0.025,1.09 -0.154,1.025 -0.221,1.09 -0.285,1.152 -0.221,1.217 c 0,0.062 0.067,0.191 0.196,0.254 C 0.164,1.6 0.355,1.6 0.482,1.408 H 0.611 C 0.547,1.535 0.355,1.662 0.035,1.727 0.164,1.982 0.229,2.174 0.229,2.302 0.291,2.365 0.418,2.428 0.545,2.365 L 0.482,2.428 c -0.191,-0.063 -0.318,0 -0.447,0.064 -0.189,0.065 -0.127,0.192 0.067,0.319 0.127,-0.063 0.316,0 0.509,0.128 0.192,0.128 0.254,0.256 0.19,0.319 C 0.738,3.067 0.611,3.002 0.418,2.939 0.229,2.875 0.229,3.002 0.291,3.195 0.229,3.067 0.102,2.939 -0.092,2.875 c -0.191,-0.064 -0.32,0 -0.254,0.191 0,0.256 -0.066,0.383 -0.127,0.383 -0.064,0.192 0,0.383 0.061,0.576 0.066,0.19 0.191,0.19 0.32,0 0.067,0.063 0.194,0 0.321,-0.193 -0.065,0.064 0,0.064 0.189,0.064 0.193,0 0.193,0.065 0,0.129 -0.127,-0.064 -0.254,0 -0.443,0.19 0,0.064 -0.067,0.191 -0.196,0.32 -0.062,0.065 -0.064,0.192 0,0.254 0,0.065 0.067,0.127 0.196,0.127 0.127,-0.062 0.127,0 0,0.129 -0.196,0 -0.26,0.127 -0.321,0.318 0.063,0.256 0.061,0.448 0,0.512 0.321,0 0.51,-0.127 0.51,-0.383 0.065,-0.128 0.127,-0.129 0.191,-0.064 0.063,0 0,0.191 -0.064,0.51 -0.062,0 -0.062,0 -0.062,0.064 0,0.191 0.062,0.255 0.189,0.191 C 0.482,6.13 0.545,6.064 0.545,5.938 L 0.547,5.875 C 0.672,5.811 0.801,5.811 0.865,5.938 0.932,6.13 0.992,6.13 1.119,6.002 c 0,-0.064 0,-0.064 0.067,-0.064 C 1.25,5.875 1.313,5.811 1.439,5.811 1.631,5.748 1.566,5.811 1.313,5.938 1.059,6.193 0.992,6.322 1.186,6.257 1.186,6.193 1.25,6.193 1.439,6.13 c 0.127,0 0.258,-0.066 0.321,-0.192 0.064,0 0.125,-0.063 0.191,-0.19 0.065,-0.064 0.065,0 0,0.19 C 1.631,6.13 1.504,6.257 1.631,6.385 1.25,6.703 0.992,6.896 0.865,6.959 0.738,7.088 0.738,7.15 0.865,7.215 0.932,7.277 0.992,7.277 1.059,7.088 h 0.318 c 0.062,0.062 0.062,0.127 0,0.254 L 1.504,7.534 C 1.313,7.788 1.119,7.98 0.992,8.107 c 0.067,0.066 0.127,0.066 0.258,0 0.127,-0.064 0.254,0 0.316,0.066 0.065,0 0.194,0 0.319,0.063 0.066,0.063 0.193,0 0.258,-0.063 0.062,0 0.127,0 0.191,-0.066 V 8.173 C 2.27,8.236 2.143,8.236 2.016,8.299 1.824,8.426 1.76,8.554 1.824,8.619 1.76,8.554 1.697,8.682 1.76,8.873 c 0.064,0.191 0.125,0.256 0.191,0.191 0.319,-0.126 0.319,-0.062 0,0.127 0,0.065 0.065,0.129 0.192,0.065 0.127,0 0.127,0.064 0.062,0.127 -0.189,0.064 -0.254,0.129 -0.254,0.256 0,0.191 0.065,0.318 0.192,0.383 l 0.062,0.447 c 0.449,-0.193 0.639,-0.32 0.639,-0.383 0.062,0 0.062,0.063 0.062,0.19 0,0.066 0.065,0 0.129,-0.127 C 3.229,10.086 3.289,10.022 3.229,9.83 3.162,9.703 3.1,9.576 2.971,9.383 3.1,9.447 3.289,9.639 3.48,9.957 c -0.062,0.258 0,0.319 0.321,0.129 C 4.119,9.957 4.119,9.83 3.928,9.639 3.865,9.447 3.801,9.383 3.865,9.383 3.928,9.447 3.992,9.512 3.992,9.639 4.057,9.768 4.119,9.83 4.313,9.83 h 0.253 c 0.065,0.127 0.192,0.192 0.383,0.256 0.065,-0.064 0.194,-0.064 0.256,0.063 0.065,0.066 0.125,0.065 0.125,-0.063 0.449,-0.064 0.83,0 1.086,0.319 0.193,0.064 0.385,0 0.512,-0.129 h 0.385 c 0.126,0.066 0.126,0.129 -0.067,0.256 l 0.067,0.128 c 0.06,0 0.126,-0.064 0.187,-0.128 0.066,-0.063 0.193,0 0.258,0.064 0.127,-0.064 0.381,-0.127 0.699,-0.064 0,-0.127 -0.061,-0.318 -0.191,-0.51 C 8.139,9.83 8.076,9.703 8.139,9.576 8.203,9.512 8.266,9.512 8.396,9.512 8.457,9.447 8.396,9.383 8.33,9.256 8.203,8.746 7.885,8.426 7.313,8.299 6.928,7.726 6.609,7.342 6.354,7.215 5.971,6.896 5.779,6.703 5.715,6.641 5.396,6.449 5.27,6.257 5.33,6.064 V 5.938 C 5.27,5.875 5.205,5.875 5.143,5.811 4.949,5.748 4.822,5.811 4.758,5.875 4.949,5.555 5.205,5.492 5.523,5.748 5.588,5.684 5.652,5.619 5.588,5.555 l 0.127,0.064 c 0.064,0 0.129,0.065 0.256,0.192 0.062,0.064 0.127,0.064 0.062,-0.127 L 5.33,4.789 C 5.33,5.109 5.205,5.172 5.014,4.98 4.949,4.916 4.758,4.854 4.566,4.789 4.373,4.727 4.313,4.662 4.246,4.535 4.057,4.15 4.057,4.088 4.246,4.344 4.439,4.662 4.758,4.789 5.078,4.727 5.27,4.789 5.33,4.789 5.27,4.727 5.27,4.662 5.205,4.535 5.078,4.344 5.014,4.215 4.949,4.088 4.758,4.025 4.631,4.025 4.566,4.025 4.631,3.961 4.693,3.896 4.693,3.768 4.566,3.705 4.693,3.641 4.949,3.832 5.27,4.15 5.143,4.215 5.205,4.279 5.457,4.279 c 0.322,0 0.449,0 0.514,0.065 0.127,0.191 0.445,0.318 0.892,0.383 0.192,0.253 0.45,0.318 0.768,0.189 0.508,-0.127 0.826,-0.189 0.892,-0.189 0.192,0.189 0.508,0.189 0.829,0.062 0.062,0 0.318,0 0.703,-0.062 0.318,-0.065 0.511,0 0.638,0.062 0.381,0 0.573,0 0.637,0.065 0.32,0 0.574,-0.127 0.828,-0.448 C 12.223,4.344 12.223,4.279 12.223,4.088 12.287,3.896 12.35,3.768 12.416,3.705 12.35,3.641 12.35,3.641 12.35,3.578 12.416,3.514 12.35,3.385 12.287,3.322 12.031,3.002 11.838,2.748 11.711,2.557 11.521,2.238 11.393,1.918 11.459,1.6 11.521,1.535 11.459,1.408 11.393,1.217 11.33,1.152 11.33,1.09 11.266,0.961 11.074,0.77 11.012,0.578 11.074,0.387 11.012,0.068 10.82,-0.25 10.373,-0.57 10.309,-0.891 10.246,-1.08 10.055,-1.209 10.119,-1.4 9.926,-1.654 9.414,-2.037 c 0,-0.192 -0.189,-0.256 -0.51,-0.192 -0.447,0 -0.828,-0.191 -1.146,-0.574 -0.192,0 -0.319,0 -0.258,-0.064 0.066,0 0.131,0 0.32,0.064 l 1.084,0.51 c 0.256,0 0.321,-0.191 0.192,-0.51 0,-0.064 0.129,-0.129 0.386,-0.191 C 9.736,-3.059 9.863,-3.186 9.799,-3.377 9.736,-3.44 9.736,-3.441 9.736,-3.504 9.352,-3.824 9.033,-3.889 8.715,-3.697 8.266,-4.016 8.012,-4.271 7.947,-4.525 7.885,-4.525 7.693,-4.59 7.439,-4.719 7.182,-4.781 6.992,-4.781 6.863,-4.652 6.801,-4.463 6.609,-4.463 6.416,-4.59 6.227,-4.652 6.287,-4.719 6.545,-4.781 l 0.957,-0.127 c 0.445,-0.065 0.764,-0.194 0.828,-0.256 0.447,0.062 0.639,0.256 0.639,0.512 0.062,0.127 0.256,0.189 0.513,0.127 0.254,-0.065 0.381,-0.127 0.381,-0.321 0.125,0.065 0.319,-0.062 0.573,-0.256 0.257,-0.189 0.447,-0.253 0.638,-0.189 0.256,-0.193 0.576,-0.576 0.957,-1.277 0.065,-0.319 0.192,-0.383 0.319,-0.256 0.066,-0.127 0.193,-0.19 0.257,-0.19 0.127,-0.129 0.256,-0.447 0.317,-0.894 v -0.254 c 0.064,-0.193 0.064,-0.383 0.131,-0.511 -0.067,-0.192 -0.067,-0.511 0.127,-0.893 l 0.445,-1.084 c 0.066,-0.194 0.127,-0.448 0.193,-0.831 0.063,-0.255 0.252,-0.447 0.446,-0.574 0.06,-0.191 0,-0.318 -0.067,-0.447 0.067,-0.063 0.067,0 0.127,0.064 0.067,0.065 0.131,0.065 0.258,0 0.127,-0.064 0.381,-0.193 0.701,-0.32 0.32,-0.062 0.512,-0.191 0.639,-0.383 0.191,-0.064 0.318,-0.127 0.385,-0.254 0.06,-0.128 0.127,-0.255 0.189,-0.447 0.191,-0.447 0.383,-0.767 0.574,-0.83 -0.062,-0.189 0.129,-0.383 0.639,-0.51 -0.639,-0.191 -0.639,-0.703 -0.065,-1.531 0.065,-0.129 0.254,-0.318 0.446,-0.574 0.064,-0.065 0.127,-0.193 0.193,-0.256 0.065,-0.064 0.065,-0.191 0.065,-0.254 -0.065,0.063 -0.131,0.063 -0.258,0.063 -0.192,-0.063 -0.446,0 -0.699,0.191 -0.065,0.063 -0.127,0.129 -0.192,0.191 -0.066,0.127 -0.256,0.127 -0.574,0.065 -0.318,-0.065 -0.512,-0.065 -0.639,0 -0.191,0 -0.256,-0.065 -0.32,-0.127 -0.063,-0.066 0.064,-0.066 0.256,0 0.064,0 0.127,0 0.258,-0.066 0.127,-0.063 0.254,0 0.316,0.066 0.129,0 0.256,0 0.447,0.062 0.065,-0.062 0.19,-0.128 0.256,-0.191 v -0.127 c 0.192,-0.191 0.445,-0.447 0.828,-0.703 0.383,-0.191 0.703,-0.701 0.957,-1.529 0.192,-0.384 0,-0.703 -0.447,-1.022 l -0.574,-0.765 c 0.191,0.126 0.32,0.062 0.512,-0.129 0.191,-0.192 0.318,-0.321 0.445,-0.256 0.064,-0.19 0.129,-0.19 0.193,-0.127 0.063,0.063 0.127,0.127 0.19,0.32 0.131,0.511 0.318,0.701 0.638,0.637 0.448,0 0.83,0 1.084,-0.063 0.067,0 0.065,0 0,0.063 -0.062,0.064 0,0.064 0.131,0 0.19,-0.063 0.446,-0.192 0.828,-0.254 0.319,-0.065 0.51,-0.191 0.637,-0.383 0.447,-0.257 0.768,-0.83 0.83,-1.787 0,-0.32 -0.127,-0.83 -0.443,-1.404 0.06,-0.574 -0.067,-0.828 -0.514,-0.893 M 4.119,3.641 c 0.194,-0.063 0.32,-0.063 0.447,0 C 4.373,3.705 4.246,3.705 4.186,3.768 3.928,3.705 3.928,3.705 4.119,3.641"
             style="fill:#140e0c;fill-opacity:1;fill-rule:evenodd;stroke:none"
             id="path80"
             inkscape:connector-curvature="0" /></g></g></g></g></svg>